<svg width="108" height="140" viewBox="0 0 108 140" fill="none" xmlns="http://www.w3.org/2000/svg">
<path fill-rule="evenodd" clip-rule="evenodd" d="M31.8025 9.63532V9.29671C31.8025 7.43978 33.2895 5.93471 35.1254 5.93471H72.0231C73.8589 5.93471 75.346 7.43978 75.346 9.29671V9.63532C75.346 11.4923 73.8589 12.9973 72.0231 12.9973H35.1254C33.2895 12.9973 31.8025 11.4923 31.8025 9.63532ZM101.957 19.837L101.505 11.767C101.211 5.19363 95.1628 0 87.8016 0H19.129C11.7619 0 5.71025 5.20206 5.42452 11.7815L4.97925 20.0684C9.79982 19.6671 29.0607 18.1861 51.0324 18.1861C73.1113 18.1861 96.2867 19.4948 101.957 19.837Z" fill="white"/>
<path fill-rule="evenodd" clip-rule="evenodd" d="M88.5019 111.273C84.4945 111.273 81.2443 107.984 81.2443 103.928C81.2443 99.8719 84.4945 96.5834 88.5019 96.5834C92.5094 96.5834 95.7584 99.8719 95.7584 103.928C95.7584 107.984 92.5094 111.273 88.5019 111.273ZM18.6269 111.288C14.6195 111.288 11.3705 108.001 11.3705 103.944C11.3705 99.8875 14.6195 96.6003 18.6269 96.6003C22.6355 96.6003 25.8834 99.8875 25.8834 103.944C25.8834 108.001 22.6355 111.288 18.6269 111.288ZM107.134 112.325L102.171 23.6557C101.075 23.5882 98.9622 23.4629 96.0715 23.3099L97.8371 84.4308C97.8597 85.2647 97.2311 85.9624 96.4239 85.9949C84.4171 86.4709 67.0743 87.0143 50.26 87.0143C34.9471 87.0143 20.7521 86.4998 10.5121 85.9961C9.70965 85.9563 9.08699 85.261 9.11199 84.4308L10.9502 23.4244C7.90953 23.6364 5.76296 23.8124 4.7736 23.8979L0.0137532 112.343C-0.286267 117.901 4.35691 122.68 10.5538 123.2C10.8835 123.228 11.2371 123.256 11.58 123.284V134.856C11.58 134.856 11.7824 139.844 16.5077 139.844H20.989C25.7143 139.844 25.9215 134.856 25.9215 134.856V124.237C33.8553 124.652 43.2298 124.96 53.5674 124.96C64.0348 124.96 73.5128 124.643 81.5146 124.222V134.856C81.5146 134.856 81.7193 139.844 86.4423 139.844H90.9235C95.6489 139.844 95.856 134.856 95.856 134.856V123.261C96.1001 123.241 96.3572 123.222 96.5942 123.201C102.802 122.68 107.446 117.889 107.134 112.325Z" fill="white"/>
</svg>
