<svg width="98" height="152" viewBox="0 0 98 152" fill="none" xmlns="http://www.w3.org/2000/svg">
<path d="M73.9012 132.367L87.7366 151.484H97.6022L79.7436 132.367H73.9012Z" fill="white"/>
<path d="M24.1009 132.367H18.1269L0.395081 151.484H10.2656L24.1009 132.367Z" fill="white"/>
<path d="M22.3131 138.761H75.5476L73.2068 135.323H24.6491L22.3131 138.761Z" fill="white"/>
<path d="M78.4417 145.089H19.2918L16.9558 148.527H80.7777L78.4417 145.089Z" fill="white"/>
<path d="M95.5076 90.3666C95.5027 89.9765 95.4052 89.6156 95.2442 89.2888C95.1955 89.1767 95.1028 89.0986 95.0346 88.9962C94.9029 88.7963 94.7663 88.5963 94.5859 88.4354C94.4786 88.3427 94.3469 88.2842 94.225 88.211C94.1128 88.1379 93.9958 88.0794 93.8739 88.0257C93.791 87.9916 93.7227 87.9331 93.6349 87.9038C93.4886 87.8501 93.3326 87.8404 93.1765 87.816C93.157 87.8111 93.1326 87.8111 93.1082 87.8111C92.8449 87.7721 92.5816 87.7136 92.3036 87.7526C89.319 88.1671 70.9483 90.1813 69.8316 90.2739C68.3685 90.391 67.2323 91.5419 67.2323 92.9367V101.374C67.2323 101.978 66.9836 102.51 66.6275 102.959C66.1106 103.602 65.3352 104.046 64.4184 104.046H33.5828C32.6659 104.046 31.8905 103.602 31.3785 102.959C31.0176 102.51 30.7689 101.978 30.7689 101.374V92.9367C30.7689 91.5419 29.6375 90.391 28.1696 90.2739C24.8144 90.0057 7.302 87.9623 5.8341 87.7575C5.53174 87.7136 5.24402 87.7672 4.96117 87.816C4.93679 87.8209 4.91728 87.8258 4.8929 87.8258C4.76122 87.8501 4.62468 87.8599 4.50276 87.9038C4.36621 87.9477 4.25404 88.0306 4.12724 88.094C4.05409 88.133 3.98095 88.1671 3.91267 88.2062C3.79075 88.2842 3.65907 88.3427 3.55179 88.4354C3.37135 88.5914 3.2348 88.7914 3.09826 88.9913C3.03486 89.0889 2.94219 89.1718 2.88855 89.2791C2.7325 89.6058 2.63009 89.9667 2.62521 90.3569L2.21557 113.829C2.19118 115.185 3.2348 116.341 4.64905 116.521L13.4662 117.667C14.1538 117.755 14.7537 118.077 15.1877 118.54C15.6217 119.004 15.8851 119.608 15.8997 120.267L15.9826 124.49C15.9924 124.958 16.1143 125.397 16.2606 125.826C16.3581 126.104 16.4947 126.353 16.641 126.602C16.9336 127.104 17.3091 127.533 17.7626 127.899C18.4258 128.435 19.1964 128.855 20.1034 128.991L48.5592 133.302C48.8518 133.346 49.1493 133.346 49.4468 133.302L79.6192 128.728C80.2922 128.63 80.8774 128.304 81.2968 127.845C81.7162 127.387 81.9746 126.787 81.9893 126.143L82.1014 120.267C82.1161 119.608 82.3794 119.004 82.8134 118.54C83.2475 118.077 83.8473 117.755 84.5349 117.667L91.1088 116.814C93.8056 116.463 95.8051 114.263 95.771 111.678L95.5076 90.3666Z" fill="white"/>
<path d="M55.0067 43.3338C56.9281 43.3338 58.4838 44.8895 58.4838 46.811C58.4838 48.7325 56.9281 50.2882 55.0067 50.2882C53.0852 50.2882 51.5295 48.7325 51.5295 46.811C51.5295 44.8895 53.0852 43.3338 55.0067 43.3338ZM43.0099 50.2882C41.0884 50.2882 39.5328 48.7325 39.5328 46.811C39.5328 44.8895 41.0884 43.3338 43.0099 43.3338C44.9313 43.3338 46.487 44.8895 46.487 46.811C46.487 48.7325 44.9313 50.2882 43.0099 50.2882ZM47.316 20.9149V39.3738H17.9678C18.4945 42.6169 18.9529 45.4211 19.2845 47.4694C19.6503 49.7322 19.8746 51.0831 19.8746 51.1026C19.9331 51.4294 24.5856 63.9141 24.5856 63.9141C24.6148 64.0214 24.6636 64.1238 24.727 64.2165C25.4536 65.226 26.5948 65.8259 27.8042 65.8259H27.814C28.4333 65.8259 69.6222 65.8259 70.2416 65.8259H70.2514C71.4608 65.8259 72.6019 65.226 73.3286 64.2165C73.392 64.1238 73.4407 64.0214 73.4749 63.9141C73.4749 63.9141 78.1809 51.2587 78.2102 50.8393C78.2102 50.8198 78.2151 50.7954 78.2199 50.771L78.7515 47.4742L80.0633 39.3738H50.7444V20.9149H83.0479L85.1595 7.87903C79.1709 4.94804 71.768 2.73394 63.5068 1.52936L63.5019 1.5635C59.1714 0.914879 54.241 0.544235 49.0034 0.544235C43.7902 0.544235 38.8744 0.910004 34.5536 1.55862V1.52449C26.268 2.73395 18.8456 4.95292 12.8521 7.90342C13.4763 11.761 14.2127 16.2721 14.9637 20.9149H47.316Z" fill="white"/>
<path d="M8.67522 57.064C9.4116 56.6153 10.2797 56.3519 11.2062 56.3519C13.9031 56.3519 16.0879 58.5368 16.0879 61.2288C16.0879 63.794 14.103 65.896 11.5866 66.091C11.4598 66.1008 11.333 66.1105 11.2062 66.1105C9.59204 66.1105 8.16316 65.3205 7.27559 64.111C6.94885 63.6672 6.69038 63.16 6.52945 62.6138C6.39778 62.1749 6.32463 61.7116 6.32463 61.2288C6.32463 59.4634 7.27071 57.9223 8.67522 57.064ZM18.3702 67.4907C20.3843 67.4907 22.0131 69.1196 22.0131 71.1337C22.0131 73.143 20.3843 74.7767 18.3702 74.7767C16.361 74.7767 14.7273 73.143 14.7273 71.1337C14.7273 69.1196 16.361 67.4907 18.3702 67.4907ZM72.6483 81.2629H72.6581C72.6532 81.2629 72.6532 81.2629 72.6483 81.2629ZM73.7602 81.5507H73.7699C73.7651 81.5507 73.7651 81.5507 73.7602 81.5507ZM79.6269 67.4907H79.6318C81.6459 67.4907 83.2747 69.1196 83.2747 71.1337C83.2747 73.143 81.6459 74.7767 79.6318 74.7767H79.6269C77.6177 74.7767 75.984 73.143 75.984 71.1337C75.984 69.1196 77.6177 67.4907 79.6269 67.4907ZM86.7908 56.3519C87.7223 56.3519 88.5904 56.6153 89.3268 57.064C90.7361 57.9223 91.6773 59.4634 91.6773 61.2288C91.6773 61.7116 91.6042 62.1749 91.4725 62.6138C91.3116 63.16 91.058 63.6672 90.7264 64.111C89.8388 65.3205 88.4148 66.1105 86.7957 66.1105C86.6689 66.1105 86.5372 66.1008 86.4105 66.091C83.8941 65.896 81.9141 63.794 81.9141 61.2288C81.9141 58.5368 84.094 56.3519 86.7908 56.3519ZM5.01278 84.9694C5.15421 84.9596 5.28588 84.9303 5.42243 84.9303C5.70528 84.9303 5.98813 84.9498 6.27098 84.9889C9.20678 85.4034 23.9931 87.1298 28.4211 87.4858C29.5818 87.5785 30.6303 87.9881 31.4837 88.6124C32.464 89.3293 33.1613 90.3388 33.493 91.4995C33.6246 91.9579 33.7124 92.4309 33.7124 92.9333V97.9077V101.248H64.2896V97.9077V92.9333C64.2896 92.4309 64.3822 91.9579 64.5139 91.4995C64.8406 90.3388 65.5429 89.3293 66.5182 88.6124C67.3717 87.9881 68.4202 87.5785 69.5808 87.4858C74.0138 87.1298 88.8001 85.4034 91.731 84.9889C92.0187 84.9498 92.3016 84.9303 92.5795 84.9303C92.721 84.9303 92.8526 84.9596 92.9892 84.9694C93.7695 85.0279 94.5059 85.2278 95.174 85.5546C95.2861 85.5399 95.3739 85.5302 95.4227 85.5204V62.3115L94.8667 21.1118L94.8619 20.5558C94.8521 20.2388 94.7936 19.8877 94.696 19.4975C94.5644 19.0342 94.4181 18.5807 94.2474 18.1369C94.2425 18.1174 94.2327 18.0979 94.2279 18.0784C92.9453 14.6743 90.6679 11.6946 87.7077 9.43657C84.7719 27.5005 80.8802 51.4312 80.8656 51.519C80.812 51.8018 80.7681 52.0701 76.0571 64.7158C75.9401 65.0669 75.7792 65.3936 75.5695 65.6814C74.3308 67.4029 72.3313 68.427 70.2246 68.427H48.5133H27.7823C25.6707 68.427 23.6712 67.4029 22.4374 65.6814C22.2277 65.3936 22.0619 65.0669 21.9497 64.7158C17.2339 52.0701 17.19 51.8018 17.1412 51.519C17.1266 51.4312 13.235 27.5005 10.2992 9.43657C7.33899 11.6946 5.05667 14.6743 3.77897 18.0784C3.76922 18.0979 3.76434 18.1174 3.75459 18.1369C3.58878 18.5807 3.4376 19.0342 3.30593 19.4975C3.20839 19.8877 3.15475 20.2388 3.14499 20.5558L3.13524 21.1118L2.58417 62.3115V85.5204C2.62806 85.5302 2.72072 85.5399 2.828 85.5546C3.49612 85.2278 4.23251 85.0279 5.01278 84.9694Z" fill="white"/>
<path d="M86.4075 66.0983C86.5343 66.108 86.6611 66.1178 86.7879 66.1178H86.7928C86.666 66.1178 86.5343 66.108 86.4075 66.0983C83.8912 65.9032 81.9161 63.8061 81.9161 61.236C81.9161 58.544 84.1009 56.3592 86.7928 56.3592H86.7879C84.096 56.3592 81.9161 58.544 81.9161 61.236C81.9161 63.8061 83.8912 65.9032 86.4075 66.0983Z" fill="white"/>
<path d="M91.6687 61.236C91.6687 61.7188 91.5955 62.1821 91.4638 62.6211C91.3029 63.1673 91.0493 63.6696 90.7177 64.1183C89.8301 65.3277 88.4061 66.1178 86.7919 66.1178C88.4061 66.1178 89.8399 65.3277 90.7275 64.1183C91.0542 63.6696 91.3127 63.1673 91.4736 62.6211C91.6004 62.1821 91.6735 61.7188 91.6735 61.236C91.6735 59.4706 90.7323 57.9246 89.3278 57.0712C90.7323 57.9246 91.6687 59.4706 91.6687 61.236Z" fill="#00459D"/>
</svg>
