<svg width="98" height="144" viewBox="0 0 98 144" fill="none" xmlns="http://www.w3.org/2000/svg">
<path d="M73.9067 124.363L87.7421 143.479H97.6077L79.7491 124.363H73.9067Z" fill="white"/>
<path d="M24.0994 124.363H18.1254L0.393555 143.479H10.2641L24.0994 124.363Z" fill="white"/>
<path d="M22.3115 130.756H75.546L73.2052 127.318H24.6475L22.3115 130.756Z" fill="white"/>
<path d="M78.4401 137.092H19.2901L16.9541 140.53H80.776L78.4401 137.092Z" fill="white"/>
<path d="M16.3892 120.599C19.4713 121.486 43.8599 121.267 48.9951 121.267C54.1303 121.267 78.3969 121.486 81.6058 120.599C83.2737 120.155 86.741 117.707 89.8231 115.181H8.17188C11.254 117.595 14.7213 120.155 16.3892 120.599Z" fill="white"/>
<path d="M71.9513 26.3562H26.0465C25.9295 26.3562 25.9295 26.2392 25.9295 26.2392L27.4218 20.8455C27.4218 20.7333 27.5388 20.7333 27.5388 20.7333H70.576C70.6882 20.7333 70.6882 20.8455 70.6882 20.8455L72.0683 26.2392C72.0683 26.3562 71.9513 26.3562 71.9513 26.3562ZM48.538 6.7322H48.7673H48.9965H49.2257H49.4549C51.981 6.7322 54.0488 8.79507 54.0488 11.3212C54.0488 13.8474 51.981 15.9102 49.4549 15.9102H49.2257H48.9965H48.7673H48.538C46.0168 15.9102 43.949 13.8474 43.949 11.3212C43.949 8.6829 46.0168 6.7322 48.538 6.7322ZM85.5818 10.2386C84.07 9.11205 82.4509 8.07819 80.7099 7.15161C78.1984 5.82026 75.4772 4.67422 72.5511 3.74764C66.738 1.90911 60.1593 0.914255 53.1612 0.641159C52.3029 0.602144 51.4348 0.577761 50.5668 0.558252C50.1766 0.553375 49.806 0.519241 49.4207 0.519241C49.2793 0.519241 49.1428 0.528994 49.0013 0.528994C48.8648 0.528994 48.7282 0.519241 48.5868 0.519241C48.1967 0.519241 47.826 0.553375 47.4408 0.558252C46.5727 0.577761 45.7047 0.602144 44.8464 0.641159C37.8482 0.914255 31.2695 1.90911 25.4564 3.74764C22.5304 4.67422 19.8092 5.82026 17.2976 7.15161C15.5567 8.07819 13.9376 9.11205 12.4258 10.2386L12.4745 10.4288C12.4599 10.4385 12.4404 10.4483 12.4258 10.4629L17.9365 32.3058H17.9463H80.0613H80.0662L85.5818 10.4629C85.5671 10.4483 85.5476 10.4385 85.533 10.4288L85.5818 10.2386Z" fill="white"/>
<path d="M81.1243 99.4007C81.1243 100.088 80.6659 100.547 79.9782 100.547H67.3524C66.6647 100.547 66.2063 100.088 66.2063 99.4007V98.2546C66.2063 97.567 66.6647 97.1037 67.3524 97.1037H79.9782C80.6659 97.1037 81.1243 97.567 81.1243 98.2546V99.4007ZM81.1243 105.428C81.1243 106.116 80.6659 106.574 79.9782 106.574H67.3524C66.6647 106.574 66.2063 106.116 66.2063 105.428V104.282C66.2063 103.59 66.6647 103.131 67.3524 103.131H79.9782C80.6659 103.131 81.1243 103.59 81.1243 104.282V105.428ZM31.5473 99.4007C31.5473 100.088 31.0889 100.547 30.3964 100.547H17.7754C17.0878 100.547 16.6245 100.088 16.6245 99.4007V98.2546C16.6245 97.567 17.0878 97.1037 17.7754 97.1037H30.3964C31.0889 97.1037 31.5473 97.567 31.5473 98.2546V99.4007ZM31.5473 105.428C31.5473 106.116 31.0889 106.574 30.3964 106.574H17.7754C17.0878 106.574 16.6245 106.116 16.6245 105.428V104.282C16.6245 103.59 17.0878 103.131 17.7754 103.131H30.3964C31.0889 103.131 31.5473 103.59 31.5473 104.282V105.428ZM1.50173 92.0514C1.39444 101.42 3.17445 107.477 3.17445 107.477C3.17445 107.477 3.97424 111.241 6.65644 113.577H91.224C93.9062 111.241 94.706 107.477 94.706 107.477C94.706 107.477 96.486 101.312 96.5006 92.0514H1.50173Z" fill="white"/>
<path d="M94.6641 69.1071H82.8917L88.7974 56.7638L94.6641 44.6106V69.1071ZM81.058 82.9574C79.0732 82.9574 77.4639 81.47 77.5907 79.4851C77.5907 77.627 79.2 76.0176 81.058 76.0176C82.9112 76.0176 84.5254 77.5051 84.5254 79.4851C84.5254 81.3432 83.038 82.9574 81.058 82.9574ZM68.8564 85.3324C66.2571 85.3324 64.282 83.2305 64.1552 80.6311C64.1552 78.0366 66.2571 75.9347 68.8564 75.9347C71.4508 75.9347 73.5576 78.0366 73.5576 80.6311C73.5576 83.2305 71.4508 85.3324 68.8564 85.3324ZM29.1451 85.3324C26.5507 85.3324 24.4488 83.2305 24.4488 80.6311C24.4488 78.0366 26.5507 75.9347 29.1451 75.9347C31.7444 75.9347 33.8463 78.0366 33.8463 80.6311C33.7244 83.2305 31.7444 85.3324 29.1451 85.3324ZM16.9435 82.9574C14.9635 82.9574 13.481 81.3432 13.481 79.4851C13.481 77.5051 15.0903 76.0176 16.9435 76.0176C18.8015 76.0176 20.4109 77.627 20.4109 79.4851C20.5377 81.47 18.9283 82.9574 16.9435 82.9574ZM3.34228 44.6106L9.20899 56.7638L15.1147 69.1071H3.34228V44.6106ZM96.5026 69.1071V40.3044C96.6343 37.4124 96.7611 31.1847 93.9375 22.6258C91.3674 15.0618 88.8023 12.3941 87.7733 11.726L82.7649 32.4087V32.5209L71.7288 69.1071H26.2825L15.2415 32.7452L10.2331 11.726C9.209 12.5063 6.63895 15.2861 4.07379 22.6258C1.24528 31.2968 1.24528 37.5246 1.50374 40.4165C1.50374 40.0849 1.37695 69.1071 1.37695 69.1071C1.37695 76.3931 1.50375 84.0108 1.50863 90.4531H96.5075C96.5075 83.8986 96.6294 76.2859 96.5026 69.1071Z" fill="white"/>
</svg>
