<svg width="100" height="163" viewBox="0 0 100 163" fill="none" xmlns="http://www.w3.org/2000/svg">
<path d="M67.8375 3.16474C67.2955 1.71593 65.912 0.758484 64.3662 0.758484H49.3466H34.327C32.7812 0.758484 31.3977 1.71804 30.8557 3.16474L29.3964 7.06833H32.9414L34.2806 4.6705C34.4683 4.33519 34.8205 4.12851 35.2043 4.12851H40.9152H40.989L45.9217 14.0425H49.3508L44.8736 4.12851H49.3445H53.8301L49.3508 14.0425H52.7799L57.7126 4.12851H57.7759H63.4868C63.8706 4.12851 64.2249 4.33519 64.4105 4.6705L65.7496 7.06833H69.2947L67.8375 3.16474Z" fill="white"/>
<path d="M9.82897 39.5887C9.74462 38.4836 10.6198 37.543 11.727 37.543H86.65C87.7656 37.543 88.6408 38.4963 88.5459 39.6077L83.1935 102.063C89.7691 101.778 94.9232 101.493 97.6142 101.337L93.9194 28.5612C93.6473 21.857 88.0545 16.5594 81.247 16.5594H17.731C10.9172 16.5594 5.32225 21.8655 5.05653 28.5739L1.5199 101.061C3.5107 101.226 8.16505 101.588 14.5614 101.951L9.82897 39.5887ZM27.548 27.7535C27.548 25.9167 29.0369 24.4257 30.8758 24.4257H67.8302C69.667 24.4257 71.158 25.9145 71.158 27.7535V28.0888C71.158 29.9257 69.6691 31.4167 67.8302 31.4167H30.8758C29.039 31.4167 27.548 29.9278 27.548 28.0888V27.7535Z" fill="white"/>
<path d="M97.7785 104.688C90.9751 105.084 68.7325 106.278 47.4917 106.278C25.5211 106.278 6.25626 104.821 1.35095 104.416L0.0476477 131.125C-0.228619 136.792 4.06511 141.667 9.79711 142.197C18.6861 143.019 32.7589 143.991 49.5795 143.991C66.3959 143.991 80.4749 143.019 89.3724 142.199C95.1128 141.667 99.4087 136.781 99.1218 131.106L97.7785 104.688ZM22.3367 130.45C18.0725 130.45 14.616 126.994 14.616 122.729C14.616 118.465 18.0725 115.009 22.3367 115.009C26.6009 115.009 30.0574 118.465 30.0574 122.729C30.0595 126.994 26.6009 130.45 22.3367 130.45ZM76.7422 130.45C72.478 130.45 69.0215 126.994 69.0215 122.729C69.0215 118.465 72.478 115.009 76.7422 115.009C81.0064 115.009 84.4629 118.465 84.4629 122.729C84.4629 126.994 81.0064 130.45 76.7422 130.45Z" fill="white"/>
<path d="M70.9956 146.238L82.8898 162.675H91.3718L76.0169 146.238H70.9956Z" fill="white"/>
<path d="M28.1721 146.238H23.0369L7.79163 162.675H16.2779L28.1721 146.238Z" fill="white"/>
<path d="M15.1105 155.897H82.9202L79.9424 152.51H18.0882L15.1105 155.897Z" fill="white"/>
</svg>
